<?xml version="1.0" encoding="UTF-8" standalone="no"?>
<svg
   xmlns:dc="http://purl.org/dc/elements/1.1/"
   xmlns:cc="http://creativecommons.org/ns#"
   xmlns:rdf="http://www.w3.org/1999/02/22-rdf-syntax-ns#"
   xmlns:svg="http://www.w3.org/2000/svg"
   xmlns="http://www.w3.org/2000/svg"
   xmlns:sodipodi="http://sodipodi.sourceforge.net/DTD/sodipodi-0.dtd"
   xmlns:inkscape="http://www.inkscape.org/namespaces/inkscape"
   inkscape:version="1.1-dev (3d47766383, 2020-01-22)"
   sodipodi:docname="ayun-logo.svg"
   version="1.1"
   width="150mm"
   viewBox="0 0 558.97994 558.97995"
   height="150mm"
   enable-background="new 0 0 504.821 504.821"
   id="Layer_1">
  <metadata
     id="metadata13">
    <rdf:RDF>
      <cc:Work
         rdf:about="">
        <dc:format>image/svg+xml</dc:format>
        <dc:type
           rdf:resource="http://purl.org/dc/dcmitype/StillImage" />
        <dc:title />
      </cc:Work>
    </rdf:RDF>
  </metadata>
  <defs
     id="defs11" />
  <sodipodi:namedview
     inkscape:current-layer="Layer_1"
     inkscape:window-maximized="0"
     inkscape:window-y="6"
     inkscape:window-x="6"
     inkscape:cy="362.60399"
     inkscape:cx="2.3302051"
     inkscape:zoom="0.34956214"
     width="150mm"
     units="mm"
     showgrid="false"
     id="namedview9"
     inkscape:window-height="659"
     inkscape:window-width="1354"
     inkscape:pageshadow="2"
     inkscape:pageopacity="0"
     guidetolerance="10"
     gridtolerance="10"
     objecttolerance="10"
     borderopacity="1"
     bordercolor="#666666"
     pagecolor="#ffffff" />
  <rect
     inkscape:export-ydpi="96"
     inkscape:export-xdpi="96"
     inkscape:export-filename="/home/maxfg/ayun.png"
     y="-42.400459"
     x="-25.668821"
     height="618.49298"
     width="618.49298"
     id="rect946"
     style="opacity:1;fill:#fbeaeb;fill-opacity:1;stroke:none;stroke-width:16.05841446;stroke-linecap:round;stroke-linejoin:round;stroke-miterlimit:4;stroke-dasharray:none;stroke-dashoffset:0;stroke-opacity:1;paint-order:stroke markers fill" />
  <g
     transform="translate(23.235945,26.094846)"
     id="g956">
    <path
       inkscape:connector-curvature="0"
       style="opacity:1;fill:#2f3c7e;fill-opacity:1;stroke:#fbeaeb;stroke-width:13.54635906;stroke-linecap:round;stroke-linejoin:round;stroke-miterlimit:4;stroke-dasharray:none;stroke-dashoffset:0;stroke-opacity:1;paint-order:stroke markers fill"
       d="m 258.79247,53.736189 c -10.50213,0.128661 -20.95573,8.083816 -26.15925,21.210089 L 166.50911,241.74997 c -6.93802,17.5017 -1.83588,37.3724 11.43889,44.55197 13.27477,7.17959 29.54704,-1.13174 36.48506,-18.63345 l 45.9077,-115.80625 45.90963,115.80625 c 6.93802,17.50171 23.21028,25.81304 36.48505,18.63345 13.27477,-7.17957 18.37692,-27.05027 11.4389,-44.55197 L 288.05022,74.946278 c -5.45949,-13.77198 -16.69897,-21.845502 -27.70946,-21.165797 -0.5156,-0.03178 -1.03232,-0.05061 -1.54829,-0.04429 z"
       id="rect23" />
    <g
       transform="matrix(0.52785869,0,0,0.52785869,213.86271,165.17045)"
       id="g4"
       style="fill:#2f3c7e;fill-opacity:1;stroke:#fbeaeb;stroke-width:14.94306755;stroke-miterlimit:4;stroke-dasharray:none;stroke-opacity:1">
      <path
         inkscape:connector-curvature="0"
         d="m 150.383,18.301 c -7.13,-3.928 -15.308,-6.187 -24.033,-6.187 -15.394,0 -29.18,7.015 -38.283,18.015 -9.146,-11 -22.919,-18.015 -38.334,-18.015 -8.704,0 -16.867,2.259 -24.013,6.187 C 10.388,26.792 0,43.117 0,61.878 0,67.249 0.874,72.4 2.457,77.219 c 8.537,38.374 85.61,86.771 85.61,86.771 0,0 77.022,-48.396 85.571,-86.771 1.583,-4.819 2.466,-9.977 2.466,-15.341 0,-18.754 -10.388,-35.074 -25.721,-43.577 z"
         id="path2-3"
         style="fill:#2f3c7e;fill-opacity:1;stroke:#fbeaeb;stroke-width:14.94306755;stroke-miterlimit:4;stroke-dasharray:none;stroke-opacity:1" />
    </g>
    <path
       style="fill:#fbeaeb;fill-opacity:1;stroke-width:0.15513285"
       inkscape:connector-curvature="0"
       id="path4-6"
       d="m 270.54234,243.76747 c 5.62449,-5.62449 5.62449,-14.7764 0,-20.40105 l -3.38717,-3.38701 -5.16794,5.16794 c -0.66537,0.66552 -1.66644,0.86455 -2.53596,0.50449 -0.86952,-0.36022 -1.43653,-1.20879 -1.43653,-2.14983 v -8.00905 l -7.87361,7.87362 c -5.6245,5.62449 -5.6245,14.7764 0,20.40105 5.62465,5.6245 14.77671,5.6245 20.40121,-1.6e-4 z" />
  </g>
  <text
     id="text960"
     y="380.16687"
     x="133.34108"
     style="font-style:normal;font-variant:normal;font-weight:bold;font-stretch:normal;font-size:36.8099px;line-height:1.25;font-family:Comfortaa;-inkscape-font-specification:'Comfortaa Bold';letter-spacing:0px;word-spacing:0px;fill:#2f3c7e;fill-opacity:1;stroke:none;stroke-width:0.985978"
     xml:space="preserve"><tspan
       style="font-size:52.5855px;fill:#2f3c7e;fill-opacity:1;stroke-width:0.985978"
       y="380.16687"
       x="133.34108"
       id="tspan958"
       sodipodi:role="line">Ayün Linux</tspan></text>
  <text
     id="text960-3-0"
     y="430.34033"
     x="155.85088"
     style="font-style:normal;font-variant:normal;font-weight:bold;font-stretch:normal;font-size:36.8099px;line-height:1.25;font-family:Comfortaa;-inkscape-font-specification:'Comfortaa Bold';letter-spacing:0px;word-spacing:0px;fill:#2f3c7e;fill-opacity:1;stroke:none;stroke-width:0.985978"
     xml:space="preserve"><tspan
       dx="0"
       style="font-style:normal;font-variant:normal;font-weight:normal;font-stretch:normal;font-size:28.922px;font-family:'FreeMono for Powerline';-inkscape-font-specification:'FreeMono for Powerline, Normal';font-variant-ligatures:normal;font-variant-caps:normal;font-variant-numeric:normal;font-feature-settings:normal;text-align:start;letter-spacing:4.39746px;word-spacing:0px;writing-mode:lr-tb;text-anchor:start;fill:#2f3c7e;fill-opacity:1;stroke-width:0.985978"
       y="430.34033"
       x="155.85088"
       id="tspan958-6-5"
       sodipodi:role="line">MADE FOR YOU</tspan></text>
</svg>
